<svg xmlns="http://www.w3.org/2000/svg" xmlns:xlink="http://www.w3.org/1999/xlink" width="1096" height="1216" viewBox="0 0 1096 1216"><defs><style>.a{fill:url(#a);}.b,.i,.j{fill:none;stroke:#fff;}.c,.d,.o,.p,.q,.r,.t,.u,.v{fill:#fff;}.d{stroke:#707070;}.e{clip-path:url(#c);}.f{opacity:0.702;}.g{opacity:0.102;}.h{clip-path:url(#d);}.i{fill-rule:evenodd;}.j{stroke-miterlimit:22.926;}.k{clip-path:url(#e);}.l{clip-path:url(#f);}.m{clip-path:url(#g);}.n{opacity:0.199;}.o,.v{font-size:21px;}.o{font-family:SegoeUI, Segoe UI;}.p{font-size:17px;}.p,.q,.r,.t,.u,.v{font-family:Roboto-Bold, Roboto;font-weight:700;}.q{font-size:16px;}.r{font-size:18px;}.s{clip-path:url(#h);}.t{font-size:22px;}.u{font-size:20px;}.w{opacity:0.333;clip-path:url(#l);}.x{opacity:0.239;}.y{clip-path:url(#m);}.z{clip-path:url(#n);}.aa{clip-path:url(#o);}.ab{clip-path:url(#p);}.ac{clip-path:url(#q);}</style><linearGradient id="a" x1="1" y1="0.526" x2="0" y2="0.529" gradientUnits="objectBoundingBox"><stop offset="0" stop-color="#039dd3"/><stop offset="0.463" stop-color="#1b348d"/><stop offset="1" stop-color="#a60047"/></linearGradient><clipPath id="c"><rect class="a" width="1096" height="1216" transform="translate(0 -0.5)"/></clipPath><clipPath id="d"><path class="b" d="M2.607,5.515,1144.123,0l-2.607,572.424L0,577.94Z" transform="translate(0)"/></clipPath><clipPath id="e"><path class="b" d="M2.607,5.515,1144.151,0l-2.607,572.424L0,577.94Z"/></clipPath><clipPath id="f"><path class="b" d="M2.607,5.515,1144.179,0l-2.607,572.424L0,577.94Z" transform="translate(0)"/></clipPath><clipPath id="g"><path class="b" d="M2.607,5.515,1144.207,0,1141.6,572.424,0,577.94Z" transform="translate(0)"/></clipPath><clipPath id="h"><rect class="c" width="929.999" height="694.964"/></clipPath><clipPath id="l"><rect class="d" width="646.074" height="1715.09" transform="translate(808 -114)"/></clipPath><clipPath id="m"><path class="b" d="M0,0,1391.315,454.359l227.8,649.181L227.8,649.181Z"/></clipPath><clipPath id="n"><path class="b" d="M0,0,1391.349,454.37l227.8,649.182L227.8,649.181Z" transform="translate(0 0)"/></clipPath><clipPath id="o"><path class="b" d="M0,0,1391.383,454.382l227.8,649.181L227.8,649.181Z" transform="translate(0 0)"/></clipPath><clipPath id="p"><path class="b" d="M0,0,1391.417,454.393l227.8,649.181L227.8,649.181Z"/></clipPath><clipPath id="q"><path class="b" d="M0,0,1391.451,454.4l227.8,649.181L227.8,649.181Z" transform="translate(0 0)"/></clipPath></defs><g transform="translate(0 0.5)"><rect class="a" width="1096" height="1216" transform="translate(0 -0.5)"/><g class="e"><g transform="translate(-524 23)"><g transform="translate(121 235)"><g class="f" transform="translate(1638.573 204.889) rotate(138)"><g transform="matrix(0.839, -0.545, 0.545, 0.839, 383.684, 230.955)"><g class="g" transform="translate(1506.231 1220.429) rotate(-156)"><g transform="translate(1236.348 566.915) rotate(172)"><g class="h" transform="translate(0 0)"><path class="i" d="M100.44,4.573,1046.982,0c28.752,5.5,55.388,23.28,73.271,50.719,50.754,77.851-2.385,147.247-36.293,222.157-66.687,147.321-59.586,153.209-203.427,176.742-258.221,42.241-509.621,84.458-769.78,126.714-80.073-3.3-107.1-71.824-107.6-141.456C2.534,347.854-.36,261.323.037,174.092.394,95.759,5.83,28.565,100.44,4.573" transform="translate(2.086 0.76)"/><path class="j" d="M100.44,4.573,1046.982,0c28.752,5.5,55.388,23.28,73.271,50.719,50.754,77.851-2.385,147.247-36.293,222.157-66.687,147.321-59.586,153.209-203.427,176.742-258.221,42.241-509.621,84.458-769.78,126.714-80.073-3.3-107.1-71.824-107.6-141.456C2.534,347.854-.36,261.323.037,174.092.394,95.759,5.83,28.565,100.44,4.573Z" transform="translate(2.086 0.76)"/></g></g><g transform="translate(1278.039 567.112) rotate(172)"><g class="k" transform="translate(0 0)"><path class="i" d="M100.443,4.573,1047.008,0c28.753,5.5,55.389,23.28,73.272,50.719,50.755,77.851-2.385,147.247-36.294,222.157C1017.3,420.2,1024.4,426.084,880.555,449.618c-258.227,42.241-509.634,84.458-769.8,126.714-80.075-3.3-107.1-71.824-107.6-141.456C2.534,347.854-.36,261.323.037,174.092.394,95.759,5.83,28.565,100.443,4.573" transform="translate(2.086 0.76)"/><path class="j" d="M100.443,4.573,1047.008,0c28.753,5.5,55.389,23.28,73.272,50.719,50.755,77.851-2.385,147.247-36.294,222.157C1017.3,420.2,1024.4,426.084,880.555,449.618c-258.227,42.241-509.634,84.458-769.8,126.714-80.075-3.3-107.1-71.824-107.6-141.456C2.534,347.854-.36,261.323.037,174.092.394,95.759,5.83,28.565,100.443,4.573Z" transform="translate(2.086 0.76)"/></g></g><g transform="translate(1319.73 567.309) rotate(172)"><g class="l" transform="translate(0 0)"><path class="i" d="M100.445,4.573,1047.033,0c28.754,5.5,55.391,23.28,73.274,50.719,50.757,77.851-2.385,147.247-36.294,222.157-66.691,147.321-59.589,153.209-203.437,176.742C622.343,491.859,370.93,534.075,110.759,576.331c-80.077-3.3-107.1-71.824-107.6-141.456C2.534,347.854-.36,261.323.037,174.092.394,95.759,5.83,28.565,100.445,4.573" transform="translate(2.086 0.76)"/><path class="j" d="M100.445,4.573,1047.033,0c28.754,5.5,55.391,23.28,73.274,50.719,50.757,77.851-2.385,147.247-36.294,222.157-66.691,147.321-59.589,153.209-203.437,176.742C622.343,491.859,370.93,534.075,110.759,576.331c-80.077-3.3-107.1-71.824-107.6-141.456C2.534,347.854-.36,261.323.037,174.092.394,95.759,5.83,28.565,100.445,4.573Z" transform="translate(2.086 0.76)"/></g></g><g transform="translate(1361.422 567.506) rotate(172)"><g class="m" transform="translate(0 0)"><path class="i" d="M100.448,4.573,1047.059,0c28.754,5.5,55.392,23.28,73.276,50.719,50.758,77.851-2.385,147.247-36.3,222.157C1017.347,420.2,1024.449,426.084,880.6,449.618c-258.24,42.241-509.658,84.458-769.836,126.714-80.078-3.3-107.1-71.824-107.6-141.456C2.534,347.854-.36,261.323.037,174.092.394,95.759,5.83,28.565,100.448,4.573" transform="translate(2.086 0.76)"/><path class="j" d="M100.448,4.573,1047.059,0c28.754,5.5,55.392,23.28,73.276,50.719,50.758,77.851-2.385,147.247-36.3,222.157C1017.347,420.2,1024.449,426.084,880.6,449.618c-258.24,42.241-509.658,84.458-769.836,126.714-80.078-3.3-107.1-71.824-107.6-141.456C2.534,347.854-.36,261.323.037,174.092.394,95.759,5.83,28.565,100.448,4.573Z" transform="translate(2.086 0.76)"/></g></g></g></g><g class="n" transform="matrix(0.999, -0.035, 0.035, 0.999, 1054.748, -118.655)"><text class="o" transform="matrix(-0.905, 0.425, -0.425, -0.905, 676.659, 453.698)"><tspan x="0" y="0">1</tspan></text><text class="o" transform="translate(665.483 458.948) rotate(154.832)"><tspan x="0" y="0">0</tspan></text><text class="o" transform="translate(654.314 464.197) rotate(154.827)"><tspan x="0" y="0">1</tspan></text><text class="o" transform="matrix(-0.905, 0.425, -0.425, -0.905, 643.133, 469.451)"><tspan x="0" y="0">0</tspan></text><text class="o" transform="translate(631.957 474.705) rotate(154.819)"><tspan x="0" y="0">1</tspan></text><text class="o" transform="translate(620.787 479.957) rotate(154.815)"><tspan x="0" y="0">0</tspan></text><text class="o" transform="translate(609.621 485.208) rotate(154.812)"><tspan x="0" y="0">1</tspan></text><text class="p" transform="translate(598.092 489.744) rotate(154.81)"><tspan x="0" y="0">U</tspan></text><text class="q" transform="translate(587.047 496.043) rotate(154.807)"><tspan x="0" y="0">T</tspan></text><text class="r" transform="translate(575.665 499.188) rotate(154.806)"><tspan x="0" y="0">O</tspan></text><text class="r" transform="translate(563.64 504.844) rotate(154.804)"><tspan x="0" y="0">M</tspan></text><text class="p" transform="matrix(-0.905, 0.426, -0.426, -0.905, 548.657, 512.998)"><tspan x="0" y="0">A</tspan></text><text class="q" transform="translate(538.375 518.941) rotate(154.802)"><tspan x="0" y="0">T</tspan></text><text class="r" transform="matrix(-0.905, 0.426, -0.426, -0.905, 526.75, 522.2)"><tspan x="0" y="0">I</tspan></text><text class="p" transform="matrix(-0.905, 0.426, -0.426, -0.905, 522.086, 525.501)"><tspan x="0" y="0">C</tspan></text><text class="r" transform="matrix(-0.905, 0.426, -0.426, -0.905, 510.258, 529.961)"><tspan x="0" y="0"> </tspan></text><text class="r" transform="translate(505.934 531.995) rotate(154.803)"><tspan x="0" y="0">W</tspan></text><text class="r" transform="translate(490.69 539.168) rotate(154.805)"><tspan x="0" y="0">O</tspan></text><text class="q" transform="translate(479.514 546.635) rotate(154.807)"><tspan x="0" y="0">R</tspan></text><text class="q" transform="translate(468.396 551.866) rotate(154.809)"><tspan x="0" y="0">K</tspan></text><text class="p" transform="translate(456.913 556.162) rotate(154.812)"><tspan x="0" y="0">F</tspan></text><text class="p" transform="translate(447.368 560.65) rotate(154.814)"><tspan x="0" y="0">L</tspan></text><text class="r" transform="translate(438.057 563.925) rotate(154.817)"><tspan x="0" y="0">O</tspan></text><text class="r" transform="translate(426.011 569.588) rotate(154.822)"><tspan x="0" y="0">W</tspan></text><text class="o" transform="translate(411.54 578.383) rotate(154.827)"><tspan x="0" y="0">0</tspan></text><text class="o" transform="translate(400.371 583.632) rotate(154.832)"><tspan x="0" y="0">1</tspan></text><text class="o" transform="matrix(-0.905, 0.425, -0.425, -0.905, 389.192, 588.885)"><tspan x="0" y="0">1</tspan></text><text class="o" transform="translate(378.026 594.13) rotate(154.843)"><tspan x="0" y="0">0</tspan></text><text class="o" transform="matrix(-0.905, 0.425, -0.425, -0.905, 366.851, 599.379)"><tspan x="0" y="0">1</tspan></text><text class="o" transform="translate(355.668 604.628) rotate(154.855)"><tspan x="0" y="0">0</tspan></text><text class="o" transform="translate(344.493 609.874) rotate(154.862)"><tspan x="0" y="0">1</tspan></text><text class="o" transform="translate(333.311 615.122) rotate(154.869)"><tspan x="0" y="0">0</tspan></text><text class="o" transform="translate(322.134 620.364) rotate(154.877)"><tspan x="0" y="0">1</tspan></text><text class="o" transform="translate(310.965 625.601) rotate(154.885)"><tspan x="0" y="0">0</tspan></text><text class="o" transform="matrix(-0.906, 0.424, -0.424, -0.906, 299.786, 630.842)"><tspan x="0" y="0">1</tspan></text><text class="o" transform="translate(288.612 636.078) rotate(154.902)"><tspan x="0" y="0">0</tspan></text><text class="o" transform="translate(277.427 641.316) rotate(154.912)"><tspan x="0" y="0">1</tspan></text><text class="o" transform="translate(266.246 646.551) rotate(154.921)"><tspan x="0" y="0">0</tspan></text><text class="o" transform="translate(255.052 651.789) rotate(154.931)"><tspan x="0" y="0">1</tspan></text><text class="o" transform="translate(243.882 657.016) rotate(154.942)"><tspan x="0" y="0">0</tspan></text><text class="o" transform="translate(232.695 662.245) rotate(154.952)"><tspan x="0" y="0">1</tspan></text><text class="o" transform="translate(221.513 667.471) rotate(154.963)"><tspan x="0" y="0">0</tspan></text><g class="s"><text class="o" transform="translate(210.862 673.251) rotate(167.916)"><tspan x="0" y="0">1</tspan></text><text class="o" transform="translate(198.969 675.825) rotate(174.564)"><tspan x="0" y="0">0</tspan></text><text class="o" transform="translate(186.862 677.009) rotate(-177.758)"><tspan x="0" y="0">1</tspan></text><text class="o" transform="translate(174.738 676.562) rotate(-169.236)"><tspan x="0" y="0">0</tspan></text></g><text class="o" transform="matrix(-0.941, -0.338, 0.338, -0.941, 162.819, 674.317)"><tspan x="0" y="0">1</tspan></text><text class="o" transform="translate(151.4 670.227) rotate(-151.309)"><tspan x="0" y="0">0</tspan></text><text class="o" transform="translate(140.76 664.407) rotate(-142.948)"><tspan x="0" y="0">1</tspan></text><text class="o" transform="translate(131.059 657.076) rotate(-135.445)"><tspan x="0" y="0">0</tspan></text><text class="o" transform="translate(122.392 648.533) rotate(-128.908)"><tspan x="0" y="0">1</tspan></text><text class="o" transform="translate(114.734 639.033) rotate(-123.265)"><tspan x="0" y="0">0</tspan></text><text class="o" transform="translate(108.039 628.812) rotate(-118.393)"><tspan x="0" y="0">1</tspan></text><text class="o" transform="translate(102.221 618.037) rotate(-114.142)"><tspan x="0" y="0">1</tspan></text><text class="o" transform="translate(97.219 606.866) rotate(-110.389)"><tspan x="0" y="0">0</tspan></text><text class="o" transform="translate(92.952 595.375) rotate(-107.005)"><tspan x="0" y="0">1</tspan></text><text class="t" transform="translate(89.404 583.58) rotate(-106.406)"><tspan x="0" y="0">A</tspan></text><text class="t" transform="translate(84.835 568.07) rotate(-106.583)"><tspan x="0" y="0">R</tspan></text><text class="t" transform="translate(80.625 553.928) rotate(-106.708)"><tspan x="0" y="0">T</tspan></text><text class="t" transform="matrix(-0.289, -0.957, 0.957, -0.289, 76.343, 539.678)"><tspan x="0" y="0">I</tspan></text><text class="u" transform="translate(73.361 533.249) rotate(-106.826)"><tspan x="0" y="0">F</tspan></text><text class="t" transform="matrix(-0.29, -0.957, 0.957, -0.29, 70.502, 520.338)"><tspan x="0" y="0">I</tspan></text><text class="t" transform="translate(68.469 513.63) rotate(-106.869)"><tspan x="0" y="0">C</tspan></text><text class="t" transform="translate(63.901 498.565) rotate(-106.861)"><tspan x="0" y="0">I</tspan></text><text class="t" transform="matrix(-0.29, -0.957, 0.957, -0.29, 61.803, 491.652)"><tspan x="0" y="0">A</tspan></text><text class="v" transform="translate(56.155 476.431) rotate(-106.756)"><tspan x="0" y="0">L</tspan></text><text class="t" transform="translate(53.362 463.678) rotate(-106.69)"><tspan x="0" y="0"> </tspan></text><text class="t" transform="translate(51.639 457.932) rotate(-106.635)"><tspan x="0" y="0">I</tspan></text><text class="t" transform="matrix(-0.284, -0.959, 0.959, -0.284, 49.625, 451.211)"><tspan x="0" y="0">N</tspan></text><text class="t" transform="matrix(-0.281, -0.96, 0.96, -0.281, 44.894, 435.255)"><tspan x="0" y="0">T</tspan></text><text class="t" transform="matrix(-0.278, -0.961, 0.961, -0.278, 40.713, 420.982)"><tspan x="0" y="0">E</tspan></text><text class="v" transform="translate(35.992 408.245) rotate(-105.893)"><tspan x="0" y="0">L</tspan></text><text class="v" transform="translate(32.426 395.722) rotate(-105.644)"><tspan x="0" y="0">L</tspan></text><text class="t" transform="translate(29.881 382.911) rotate(-105.215)"><tspan x="0" y="0">I</tspan></text><text class="t" transform="matrix(-0.245, -0.97, 0.97, -0.245, 27.998, 376.191)"><tspan x="0" y="0">G</tspan></text><g class="s"><text class="t" transform="translate(23.999 360.341) rotate(-101.924)"><tspan x="0" y="0">E</tspan></text><text class="t" transform="matrix(-0.146, -0.989, 0.989, -0.146, 21.138, 347.218)"><tspan x="0" y="0">N</tspan></text><text class="t" transform="translate(18.659 330.539) rotate(-92.775)"><tspan x="0" y="0">C</tspan></text><text class="t" transform="translate(17.924 314.986) rotate(-85.951)"><tspan x="0" y="0">E</tspan></text><text class="o" transform="translate(18.881 301.656) rotate(-78.448)"><tspan x="0" y="0">1</tspan></text></g><text class="o" transform="matrix(0.337, -0.942, 0.942, 0.337, 21.285, 289.76)"><tspan x="0" y="0">0</tspan></text><text class="o" transform="translate(25.357 278.325) rotate(-61.812)"><tspan x="0" y="0">1</tspan></text><text class="o" transform="translate(31.083 267.633) rotate(-53.62)"><tspan x="0" y="0">0</tspan></text><text class="o" transform="translate(38.305 257.841) rotate(-46.256)"><tspan x="0" y="0">1</tspan></text><text class="o" transform="translate(46.747 249.036) rotate(-39.959)"><tspan x="0" y="0">0</tspan></text><text class="o" transform="translate(56.108 241.209) rotate(-34.733)"><tspan x="0" y="0">1</tspan></text><text class="o" transform="translate(65.975 234.404) rotate(-30.768)"><tspan x="0" y="0">0</tspan></text><text class="o" transform="translate(76.898 229.154) rotate(-16.117)"><tspan x="0" y="0">1</tspan></text><text class="o" transform="translate(88.759 225.727) rotate(-16.117)"><tspan x="0" y="0">0</tspan></text><text class="o" transform="translate(100.612 222.301) rotate(-16.117)"><tspan x="0" y="0">1</tspan></text><text class="o" transform="translate(112.469 218.875) rotate(-16.117)"><tspan x="0" y="0">0</tspan></text><text class="o" transform="translate(124.332 215.447) rotate(-16.117)"><tspan x="0" y="0">1</tspan></text><text class="o" transform="translate(136.188 212.021) rotate(-16.117)"><tspan x="0" y="0">0</tspan></text><text class="o" transform="translate(148.051 208.593) rotate(-16.117)"><tspan x="0" y="0">1</tspan></text><text class="o" transform="translate(159.916 205.164) rotate(-16.117)"><tspan x="0" y="0">0</tspan></text><text class="o" transform="translate(171.774 201.738) rotate(-16.117)"><tspan x="0" y="0">1</tspan></text><text class="o" transform="translate(183.634 198.311) rotate(-16.117)"><tspan x="0" y="0">1</tspan></text><text class="o" transform="translate(195.511 194.879) rotate(-16.117)"><tspan x="0" y="0">0</tspan></text><text class="o" transform="translate(207.363 191.454) rotate(-16.117)"><tspan x="0" y="0">1</tspan></text><text class="o" transform="translate(219.223 188.027) rotate(-16.117)"><tspan x="0" y="0">0</tspan></text><text class="o" transform="translate(231.086 184.599) rotate(-16.117)"><tspan x="0" y="0">1</tspan></text><text class="o" transform="translate(242.956 181.169) rotate(-16.117)"><tspan x="0" y="0">0</tspan></text><text class="o" transform="translate(254.808 177.744) rotate(-16.117)"><tspan x="0" y="0">1</tspan></text><text class="o" transform="translate(266.675 174.315) rotate(-16.117)"><tspan x="0" y="0">0</tspan></text><text class="o" transform="translate(278.529 170.89) rotate(-16.117)"><tspan x="0" y="0">1</tspan></text><text class="o" transform="translate(290.391 167.462) rotate(-16.117)"><tspan x="0" y="0">0</tspan></text><text class="o" transform="translate(302.254 164.034) rotate(-16.117)"><tspan x="0" y="0">1</tspan></text><text class="o" transform="translate(314.119 160.606) rotate(-16.117)"><tspan x="0" y="0">0</tspan></text><text class="o" transform="translate(325.98 157.178) rotate(-16.117)"><tspan x="0" y="0">1</tspan></text><text class="o" transform="translate(337.824 153.756) rotate(-16.117)"><tspan x="0" y="0">0</tspan></text><text class="o" transform="translate(349.698 150.325) rotate(-16.117)"><tspan x="0" y="0">A</tspan></text><text class="t" transform="translate(363.844 146.226) rotate(-16.117)"><tspan x="0" y="0">A</tspan></text><text class="t" transform="translate(379.4 141.731) rotate(-16.117)"><tspan x="0" y="0">R</tspan></text><text class="t" transform="translate(393.576 137.634) rotate(-16.117)"><tspan x="0" y="0">T</tspan></text><text class="t" transform="translate(407.882 133.501) rotate(-16.117)"><tspan x="0" y="0">I</tspan></text><text class="u" transform="translate(414.348 130.592) rotate(-16.117)"><tspan x="0" y="0">F</tspan></text><text class="t" transform="translate(427.307 127.888) rotate(-16.117)"><tspan x="0" y="0">I</tspan></text><text class="t" transform="translate(434.044 125.94) rotate(-16.117)"><tspan x="0" y="0">C</tspan></text><text class="t" transform="translate(449.167 121.571) rotate(-16.117)"><tspan x="0" y="0">I</tspan></text><text class="t" transform="translate(456.113 119.564) rotate(-16.117)"><tspan x="0" y="0">A</tspan></text><text class="v" transform="translate(471.391 114.108) rotate(-16.117)"><tspan x="0" y="0">L</tspan></text><text class="t" transform="translate(484.18 111.453) rotate(-16.117)"><tspan x="0" y="0"> </tspan></text><text class="t" transform="translate(489.956 109.784) rotate(-16.117)"><tspan x="0" y="0">I</tspan></text><text class="t" transform="translate(496.694 107.837) rotate(-16.117)"><tspan x="0" y="0">N</tspan></text><text class="t" transform="translate(512.688 103.215) rotate(-16.117)"><tspan x="0" y="0">T</tspan></text><text class="t" transform="translate(526.993 99.081) rotate(-16.117)"><tspan x="0" y="0">E</tspan></text><text class="v" transform="translate(539.719 94.364) rotate(-16.117)"><tspan x="0" y="0">L</tspan></text><text class="v" transform="translate(552.241 90.745) rotate(-16.117)"><tspan x="0" y="0">L</tspan></text><text class="t" transform="translate(565.03 88.09) rotate(-16.117)"><tspan x="0" y="0">I</tspan></text><text class="t" transform="translate(571.779 86.14) rotate(-16.117)"><tspan x="0" y="0">G</tspan></text><text class="t" transform="translate(587.529 81.589) rotate(-16.117)"><tspan x="0" y="0">E</tspan></text><text class="t" transform="translate(600.536 77.83) rotate(-16.117)"><tspan x="0" y="0">N</tspan></text><text class="t" transform="translate(616.85 73.116) rotate(-16.117)"><tspan x="0" y="0">C</tspan></text><text class="t" transform="translate(631.996 68.74) rotate(-16.117)"><tspan x="0" y="0">E</tspan></text><text class="o" transform="translate(645.004 64.992) rotate(-16.117)"><tspan x="0" y="0">0</tspan></text><text class="o" transform="translate(656.857 61.566) rotate(-16.117)"><tspan x="0" y="0">1</tspan></text><text class="o" transform="translate(668.726 58.137) rotate(-16.117)"><tspan x="0" y="0">1</tspan></text><text class="o" transform="translate(680.571 54.714) rotate(-16.117)"><tspan x="0" y="0">0</tspan></text><text class="o" transform="translate(692.442 51.284) rotate(-16.117)"><tspan x="0" y="0">1</tspan></text><text class="o" transform="translate(704.308 47.855) rotate(-16.117)"><tspan x="0" y="0">0</tspan></text><text class="o" transform="translate(716.162 44.43) rotate(-16.117)"><tspan x="0" y="0">1</tspan></text><text class="o" transform="translate(728.028 41) rotate(-16.117)"><tspan x="0" y="0">0</tspan></text><text class="o" transform="translate(739.88 37.576) rotate(-16.117)"><tspan x="0" y="0">1</tspan></text><text class="o" transform="translate(751.74 34.149) rotate(-16.117)"><tspan x="0" y="0">0</tspan></text><text class="o" transform="translate(763.598 30.722) rotate(-16.117)"><tspan x="0" y="0">1</tspan></text><text class="o" transform="translate(775.474 27.29) rotate(-16.117)"><tspan x="0" y="0">0</tspan></text><text class="o" transform="translate(787.323 23.867) rotate(-16.118)"><tspan x="0" y="0">1</tspan></text><g class="s"><text class="o" transform="translate(799.187 20.438) rotate(-16.117)"><tspan x="0" y="0">1</tspan></text><text class="o" transform="translate(810.754 17.97) rotate(2.048)"><tspan x="0" y="0">1</tspan></text><text class="o" transform="translate(822.901 18.395) rotate(9.837)"><tspan x="0" y="0">0</tspan></text></g><text class="o" transform="translate(834.877 20.463) rotate(17.394)"><tspan x="0" y="0">1</tspan></text><text class="o" transform="translate(846.492 24.095) rotate(24.726)"><tspan x="0" y="0">0</tspan></text><text class="o" transform="matrix(0.85, 0.527, -0.527, 0.85, 857.534, 29.172)"><tspan x="0" y="0">1</tspan></text><text class="t" transform="matrix(0.769, 0.639, -0.639, 0.769, 867.942, 35.452)"><tspan x="0" y="0">A</tspan></text><text class="t" transform="matrix(0.677, 0.736, -0.736, 0.677, 880.127, 45.557)"><tspan x="0" y="0">U</tspan></text><text class="t" transform="matrix(0.561, 0.828, -0.828, 0.561, 890.701, 57.058)"><tspan x="0" y="0">T</tspan></text><text class="t" transform="translate(898.851 68.87) rotate(65.082)"><tspan x="0" y="0">O</tspan></text><g class="s"><text class="t" transform="translate(905.948 83.657) rotate(76.071)"><tspan x="0" y="0">M</tspan></text><text class="t" transform="matrix(0.081, 0.997, -0.997, 0.081, 910.766, 104.148)"><tspan x="0" y="0">A</tspan></text><text class="t" transform="translate(911.962 118.763) rotate(90.822)"><tspan x="0" y="0">T</tspan></text><text class="t" transform="translate(911.628 133.548) rotate(94.127)"><tspan x="0" y="0">I</tspan></text><text class="t" transform="translate(911.218 140.488) rotate(96.79)"><tspan x="0" y="0">C</tspan></text><text class="t" transform="matrix(-0.151, 0.989, -0.989, -0.151, 909.276, 156.054)"><tspan x="0" y="0"> </tspan></text></g></g></g><g class="w" transform="translate(2555.01 680.522) rotate(170)"><g class="x" transform="matrix(0.559, 0.829, -0.829, 0.559, 764.078, -848.765)"><g transform="translate(1784.48 1060.325) rotate(172)"><g class="y" transform="translate(0 0)"><path class="i" d="M89.787,12.809,1243.461,389.562c37.319,17.848,77.01,48.8,109.913,87.179,93.373,108.914,56.5,166.3,45.337,237.71-21.965,140.437-10.921,149.99-177.022,118.68-298.186-56.214-588.056-109.7-888.6-166.683-99.082-36.057-159.724-124.8-188.43-204.1-35.876-99.1-74.325-198.562-109.039-297.491C4.447,76.019-16.031,1.884,89.787,12.809" transform="translate(32.119 27.303)"/><path class="j" d="M89.787,12.809,1243.461,389.562c37.319,17.848,77.01,48.8,109.913,87.179,93.373,108.914,56.5,166.3,45.337,237.71-21.965,140.437-10.921,149.99-177.022,118.68-298.186-56.214-588.056-109.7-888.6-166.683-99.082-36.057-159.724-124.8-188.43-204.1-35.876-99.1-74.325-198.562-109.039-297.491C4.447,76.019-16.031,1.884,89.787,12.809Z" transform="translate(32.119 27.303)"/></g></g><g transform="translate(1840.017 1076.211) rotate(172)"><g class="z" transform="translate(0 0)"><path class="i" d="M89.79,12.809l1153.7,376.763c37.32,17.849,77.013,48.8,109.915,87.18,93.375,108.914,56.5,166.3,45.336,237.709-21.967,140.436-10.922,149.989-177.028,118.678C923.521,776.922,633.643,723.429,333.09,666.447c-99.084-36.057-159.727-124.8-188.433-204.1-35.876-99.1-74.325-198.562-109.039-297.491C4.446,76.018-16.031,1.883,89.79,12.809" transform="translate(32.119 27.304)"/><path class="j" d="M89.79,12.809l1153.7,376.763c37.32,17.849,77.013,48.8,109.915,87.18,93.375,108.914,56.5,166.3,45.336,237.709-21.967,140.436-10.922,149.989-177.028,118.678C923.521,776.922,633.643,723.429,333.09,666.447c-99.084-36.057-159.727-124.8-188.433-204.1-35.876-99.1-74.325-198.562-109.039-297.491C4.446,76.018-16.031,1.883,89.79,12.809Z" transform="translate(32.119 27.304)"/></g></g><g transform="translate(1895.555 1092.097) rotate(172)"><g class="aa" transform="translate(0 0)"><path class="i" d="M89.792,12.81,1243.523,389.582c37.32,17.849,77.014,48.8,109.917,87.18,93.376,108.915,56.5,166.3,45.335,237.709-21.969,140.435-10.924,149.989-177.034,118.676-298.2-56.219-588.086-109.714-888.648-166.7-99.086-36.058-159.73-124.805-188.436-204.1-35.876-99.1-74.325-198.563-109.039-297.491C4.446,76.018-16.031,1.883,89.792,12.81" transform="translate(32.119 27.305)"/><path class="j" d="M89.792,12.81,1243.523,389.582c37.32,17.849,77.014,48.8,109.917,87.18,93.376,108.915,56.5,166.3,45.335,237.709-21.969,140.435-10.924,149.989-177.034,118.676-298.2-56.219-588.086-109.714-888.648-166.7-99.086-36.058-159.73-124.805-188.436-204.1-35.876-99.1-74.325-198.563-109.039-297.491C4.446,76.018-16.031,1.883,89.792,12.81Z" transform="translate(32.119 27.305)"/></g></g><g transform="translate(1951.092 1107.983) rotate(172)"><g class="ab" transform="translate(0 0)"><path class="i" d="M89.795,12.81,1243.554,389.591c37.321,17.849,77.016,48.8,109.919,87.181,93.378,108.915,56.5,166.3,45.334,237.708-21.971,140.435-10.925,149.988-177.041,118.674-298.209-56.222-588.1-109.719-888.67-166.706-99.089-36.059-159.733-124.806-188.439-204.1-35.876-99.1-74.325-198.563-109.039-297.491C4.446,76.017-16.032,1.882,89.795,12.81" transform="translate(32.12 27.305)"/><path class="j" d="M89.795,12.81,1243.554,389.591c37.321,17.849,77.016,48.8,109.919,87.181,93.378,108.915,56.5,166.3,45.334,237.708-21.971,140.435-10.925,149.988-177.041,118.674-298.209-56.222-588.1-109.719-888.67-166.706-99.089-36.059-159.733-124.806-188.439-204.1-35.876-99.1-74.325-198.563-109.039-297.491C4.446,76.017-16.032,1.882,89.795,12.81Z" transform="translate(32.12 27.305)"/></g></g><g transform="translate(2006.63 1123.869) rotate(172)"><g class="ac" transform="translate(0 0)"><path class="i" d="M89.8,12.81,1243.585,389.6c37.323,17.85,77.017,48.8,109.922,87.182,93.379,108.916,56.5,166.3,45.333,237.708-21.973,140.434-10.927,149.988-177.046,118.672C923.576,776.938,633.676,723.438,333.1,666.449c-99.091-36.06-159.736-124.807-188.443-204.105-35.876-99.1-74.325-198.563-109.039-297.491C4.446,76.017-16.032,1.882,89.8,12.81" transform="translate(32.12 27.306)"/><path class="j" d="M89.8,12.81,1243.585,389.6c37.323,17.85,77.017,48.8,109.922,87.182,93.379,108.916,56.5,166.3,45.333,237.708-21.973,140.434-10.927,149.988-177.046,118.672C923.576,776.938,633.676,723.438,333.1,666.449c-99.091-36.06-159.736-124.807-188.443-204.105-35.876-99.1-74.325-198.563-109.039-297.491C4.446,76.017-16.032,1.882,89.8,12.81Z" transform="translate(32.12 27.306)"/></g></g></g></g></g></g></g></g></svg>